# Blender v2.93.3 OBJ File: 'triangle.blend'
# www.blender.org
mtllib triangle.mtl
o Cone
v 0.725402 -0.993186 -0.883905
v 0.621389 -0.994841 0.929975
v -1.210142 -0.976568 0.000000
v 0.000000 1.000000 0.000000
vt 0.381212 0.406334
vt 0.250000 0.250000
vt 0.365530 0.074344
vt 0.069658 0.251066
vt 0.881212 0.406334
vt 0.865530 0.074344
vt 0.569658 0.251066
vn 0.9458 0.3200 0.0545
vn -0.4343 0.2659 0.8606
vn -0.0092 -1.0000 -0.0014
vn -0.4009 0.2455 -0.8826
usemtl None
s off
f 1/1/1 4/2/1 2/3/1
f 2/3/2 4/2/2 3/4/2
f 1/5/3 2/6/3 3/7/3
f 3/4/4 4/2/4 1/1/4
